<svg width="55.5" height="55.25" fill="none" version="1.1" viewBox="0 0 55.5 55.25" >
 <g id="Logo" clip-path="url(#clip0)">
  <title>logo</title>
  <path d="m50.194 24.516c-3.1313 0.0307-1.2111-1.8532-2.9698-1.8275-0.8038 0.0117-1.5207 1.0116-2.559 1.5527-1.2334 0.6429-2.8155 0.8294-4.0665 0.6226-0.8136-0.1345-1.6327-0.4071-2.3811-0.7724-2.0332-0.9923-3.1475-2.5736-2.9491-5.0964 0.1885-2.3974 0.1686-4.8125 0.2863-7.2172 0.0424-0.8669 0.8892-3.4142 0.3677-3.4904-0.773-0.11304-1.3165 0.33055-1.5253 1.0132-0.3663 1.1979-0.725 2.4319-0.837 3.6759-0.2158 2.3946-0.1659 4.8171-0.408 7.2075-0.1282 1.265-0.4859 2.565-1.0109 3.7106-0.8659 1.8895-2.382 2.3827-4.7354 2.1929-2.2662-0.1829-3.8197-1.3022-4.8647-3.3619-0.2335-0.4602-0.5121-0.8981-0.8003-1.3234-0.4886-0.7209-1.0589-0.6688-1.4151 0.119-0.2074 0.4586-0.3867 0.9313-0.5904 1.3918-0.9439 2.1339-3.6363 3.5362-5.7529 3.0009-1.0584-0.2677-1.5198-1.635-0.8616-2.5272 1.0066-1.3644 1.7905-2.8395 1.961-4.6009 0.1394-1.4397-0.2851-2.6645-1.3404-3.5969-0.2078-0.1836-0.6178-0.3459-0.8147-0.2483-0.2299 0.114-0.4233 0.5095-0.4634 0.8082-0.0768 0.5732-0.0529 1.1648-0.0382 1.7479 0.0931 3.7004-1.5115 6.0796-4.8236 7.3358-3.899 1.4789-6.9621-1.7069-7.6008-4.9892-0.44197-2.2712 0.32902-4.2106 1.5751-5.9894 1.1702-1.6705 2.6187-3.039 4.2766-4.3165-0.05303 1.2231-0.04495 2.3559-0.1646 3.4735-0.16176 1.5109-0.41232 3.0118-0.64753 4.5131-0.04517 0.2883-0.17387 0.5698-0.30117 0.8345-0.35644 0.7412-0.78186 0.7491-1.2896 0.1023-0.12772-0.3728-0.44171-0.8608-0.76346-0.5501-0.31206 0.33-0.34033 0.5789-0.4248 0.8939-0.0704 0.2626-0.04491 0.5687-0.00524 0.8465 0.11544 0.8083 0.34588 1.5797 1.1386 1.9173 0.80094 0.3411 1.4606-0.08 2.0681-0.5809 1.6189-1.3349 2.0348-3.2372 2.182-5.2533 0.20777-2.8465 0.37789-5.6962 0.61484-8.5399 0.05355-0.64249 0.26094-1.2891 0.49299-1.8929 0.59197-1.5403 1.9225-2.1041 3.3855-1.5182-0.2571 0.95715-0.5972 1.8958-0.7522 2.8673-0.3387 2.123 0.0793 4.0829 1.438 5.7445 0.6766 0.8274 1.524 1.2785 2.5985 1.0957 0.5868-0.0998 0.768-0.4637 0.4245-0.9719-0.3445-0.5098-0.7288-0.9944-1.1322-1.4542-1.1182-1.2741-1.4256-2.7563-1.0391-4.4118 0.4117-1.7635 1.1157-3.3497 2.7044-4.2692 1.7357-1.0046 4.1129-0.36437 5.7093 1.5021 0.3282 0.38375 0.604 0.8175 0.829 1.1256-0.5264 0.73222-1.0145 1.3631-1.4488 2.0329-0.2708 0.41771-0.2623 0.8672 0.2125 1.1522 0.4794 0.28775 0.9085 0.2177 1.2859-0.24549 0.3484-0.42754 0.6864-0.89172 1.1134-1.2154 1.1431-0.86636 2.6684-0.66233 3.6226 0.42916 0.1037 0.11863 0.1918 0.30649 0.1928 0.46291 0.0116 1.839 0.0353 3.6791-0.0121 5.5169-0.0178 0.6919-0.1288 1.4089-0.3416 2.062-0.5211 1.5993-1.9257 2.4963-3.3686 2.2513-1.3231-0.2246-2.3147-1.5353-2.4012-3.1846-0.0157-0.2985 0.0302-0.6046-0.0162-0.8958-0.0221-0.7066-0.7315-0.571-0.8749-0.4463-1.3218 1.1499-1.6525 2.9604-0.8563 4.532 1.8792 3.709 6.6615 3.9937 8.8814 0.5308 0.8231-1.2839 1.279-2.7146 1.3522-4.2442 0.0892-1.8656 0.0141-3.7402 0.1104-5.6051 0.0932-1.8052 0.7058-3.4202 2.0345-4.6359 1.0299-0.94235 2.2143-1.1426 3.4952-0.6427 2.4613 0.96053 3.7351 3.4599 3.1937 6.4342-0.3656 2.0086-0.9325 3.979-1.2408 5.9954-0.1934 1.265-0.2097 2.6004-0.065 3.8737 0.2333 2.0518 1.4623 3.2741 3.3651 3.7157 1.9183 0.4452 3.5407-0.0712 4.7598-1.746 1.005-1.3806 1.447-2.9971 1.6662-4.6928 0.2385-1.8458 0.1599-3.6715-0.3712-5.4595-0.3643-1.017-0.997-1.1241-1.3119-1.0644-0.2093 0.03968-0.468 0.56638-0.4759 0.88148-0.0373 1.493 0.0743 2.9922-0.0018 4.4816-0.0808 1.5822-0.2471 3.1747-1.3737 4.4193-0.8201 0.906-1.8604 1.2742-2.7023 0.9221-0.9177-0.384-1.5076-1.383-1.4397-2.6622 0.0488-0.9206 0.2017-1.8408 0.3747-2.747 0.3692-1.9332 0.8178-3.8501 1.1594-5.7883 0.1459-0.82759 0.1054-1.6918 0.1509-2.5641 2.1638-0.87725 3.4653-1.3947 5.4764 0.88497 1.8599 2.1082 3.1582 4.6053 3.0879 7.6017-0.0242 1.0303-0.4518 2.0469-0.6673 3.0762-0.1811 0.8653-0.3322 1.7381-0.4711 2.612-0.0253 0.1593-0.1734 0.8951 0.1569 0.6967 0.455-0.3142 0.9041-0.5157 1.2147-0.8576 1.4101-1.5519 2.0005-3.4696 2.1022-5.5815 0.0136-0.2838 0.0054-0.5687 0.0096-0.8531 4e-4 -0.0268 0.0171-0.0534 0.0529-0.1581 1.147 0.7667 2.0694 1.7155 2.3932 3.1174 0.4304 1.8631 0.0885 3.641-0.9001 5.2339-0.9968 1.6062-1.8193 1.8583-3.8483 1.8782zm-20.489-21.128c0.2377-0.43054 0.2086-0.70026-0.0713-1.0549-1.4676-1.86-3.4241-2.4063-5.6023-2.3249-0.7705 0.028789-1.4809 0.27477-1.9462 0.97714 0.4851 0.60146 0.9914 1.1317 1.3841 1.7433 0.4001 0.62292 0.6885 1.3258 1.0392 2.0201 1.5021-0.28919 2.8716 0.16856 4.1245 1.0253 0.3632-0.82634 0.6609-1.6411 1.072-2.386z" fill="#fc8490"/>
  <path d="m50.428 31.004c1.8665 0.0501 2.7095 0.2442 3.4373 0.9674 2.3962 2.381 2.1157 6.5829-0.5649 8.5476-0.1117 0.0819-0.2318 0.1516-0.3935 0.2565-0.104-2.9094-0.604-5.5729-3.1844-7.1827-0.0998 0.0253-0.1995 0.0506-0.2993 0.0759 0 0.5625-0.0672 1.1362 0.0189 1.6844 0.0868 0.5528 0.2869 1.0976 0.505 1.6157 0.8757 2.0805 0.7879 4.1529-0.068 6.1941-0.6809 1.6239-1.506 3.1701-2.8063 4.3814-1.167 1.0871-2.4815 1.4647-3.9996 0.8675-0.3801-0.1496-0.7757-0.2575-1.1676-0.3857 0.2347-3.3159-1.0917-6.3376-1.5031-9.5141-0.0924-0.7136-0.1398-1.4614-0.0384-2.1678 0.2247-1.5665 1.7799-2.3226 3.1327-1.5668 1.3694 0.7651 2.01 2.0611 2.1203 3.5781 0.137 1.8822 0.1272 3.7762 0.1611 5.6655 0.0081 0.4528-0.0449 0.9208 0.513 1.0452 0.5444 0.1213 0.9656-0.1068 1.1386-0.6578 1.0804-3.4419 0.9238-6.7947-0.9026-9.9343-1.1178-1.9215-2.9761-2.5903-5.1102-2.0495-2.0423 0.5175-3.1426 1.8874-3.3574 4.1814-0.2279 2.433 0.4074 4.7398 0.9927 7.05 0.3845 1.5173 0.7162 3.0301 0.3823 4.6076-0.5071 2.3956-2.9255 4.2329-5.0576 3.8179-1.2331-0.2399-2.0545-1.07-2.6711-2.1279-0.7479-1.2833-1.017-2.6882-0.9908-4.1843 0.0373-2.1377 0.1831-4.2892-0.413-6.3856-0.3736-1.3144-1.0135-2.4775-1.9872-3.4099-2.0504-1.9634-5.5623-1.4657-7.4736 1.0321-1.2461 1.6287-1.1507 3.5071 0.2898 4.9526 0.1763 0.177 0.5205 0.254 0.775 0.232 0.0981-0.0085 0.2028-0.4163 0.2351-0.6523 0.0668-0.4882 0.0325-0.9958 0.1367-1.473 0.3073-1.4056 1.2453-2.264 2.5666-2.4197 1.1154-0.1315 2.3505 0.6491 2.9373 1.8569 0.5686 1.1706 0.5025 2.4295 0.493 3.6835-0.0098 1.2959 0.0157 2.5921-0.0077 3.8876-0.0044 0.2451-0.1031 0.5493-0.2643 0.7206-1.1094 1.1795-2.8953 1.1329-4.0599-0.0888-0.2267-0.2378-0.407-0.5221-0.6127-0.7815-0.3547-0.4473-0.8007-0.483-1.2552-0.2219-0.4659 0.2677-0.4996 0.7058-0.2215 1.1218 0.436 0.6522 0.9205 1.2701 1.4223 1.9541-0.6759 1.6256-2.9124 3.0828-4.7956 3.0393-1.8471-0.0427-3.3123-1.3169-4.1353-3.5976-0.7548-2.0918-0.5938-3.9981 1.0371-5.6329 0.3317-0.3325 0.6137-0.727 0.8727-1.1246 0.2891-0.4438 0.1797-0.7725-0.3602-0.8906-1.2288-0.2689-2.1399 0.3045-2.8399 1.2428-1.7272 2.315-1.7066 4.8399-0.7352 7.4503 0.0853 0.2294 0.1871 0.4523 0.2802 0.6758-1.1697 0.6569-2.8095 0.2058-3.2786-1.1076-0.47596-1.3328-0.76437-2.7698-0.91339-4.1859-0.26641-2.5315-0.32211-5.0859-0.55354-7.6223-0.1276-1.3986-0.71292-2.6368-1.7731-3.5778-0.69175-0.6139-1.4343-1.1698-2.4115-0.7124-0.74078 0.3468-1.1955 1.5419-1.0124 2.6426 0.05122 0.3079 0.27773 0.5849 0.42382 0.8761 0.25781-0.1794 0.573-0.3104 0.76238-0.5477 0.51263-0.6424 1.0476-0.6528 1.2895 0.1422 0.3692 1.2138 0.66181 2.4699 0.81845 3.7301 0.19453 1.5652 0.21733 3.1529 0.32784 4.9509-1.0154-0.9182-1.9301-1.6691-2.7578-2.5106-1.5082-1.5336-2.7652-3.2365-3.1759-5.4631-0.71925-3.8998 2.7327-7.8655 6.4329-7.3708 3.6403 0.4867 6.1466 3.5021 6.0458 7.2629-0.0168 0.6262-0.0476 1.26 0.0274 1.8774 0.0365 0.3003 0.2434 0.685 0.4842 0.8174 0.1788 0.0983 0.6001-0.0723 0.8042-0.2534 1.357-1.2039 1.6977-2.7856 1.1348-4.4419-0.4268-1.2557-1.1272-2.4291-1.8155-3.569-0.5029-0.8327-0.1446-2.1244 0.7975-2.3987 1.989-0.579 4.7193 0.6673 5.7256 2.6315 0.2636 0.5143 0.4679 1.0605 0.7092 1.5872 0.3574 0.7801 0.9625 0.8425 1.4461 0.1297 0.3806-0.561 0.7616-1.1295 1.0683-1.7344 1.5551-3.068 5.2351-3.1634 7.4136-2.529 1.1224 0.3268 1.7197 1.2965 2.1719 2.3231 0.8825 2.004 0.8372 4.1633 0.9681 6.3002 0.1297 2.1159 0.3358 4.2293 0.594 6.3327 0.0669 0.5455 0.399 1.0888 0.7155 1.5572 0.1784 0.2642 0.5607 0.4821 0.8743 0.5202 0.2741 0.0333 0.7017-0.1382 0.8336-0.3617 0.1022-0.1731-0.1518-0.5649-0.2399-0.8619-0.2066-0.6959-0.5414-1.384-0.588-2.0917-0.1465-2.2231-0.1653-4.4547-0.2679-6.6813-0.1579-3.4269 1.3369-5.3826 4.8171-6.0331 1.1088-0.2073 2.2792-0.1791 3.4117-0.104 1.0001 0.0663 1.8124 0.6196 2.346 1.5398 0.1592 0.2747 0.3203 0.561 0.5371 0.7836 0.1948 0.1998 0.8496 0.6626 1.238-0.2142 0 0 0.5305-1.6186 2.3969-1.5686zm-27.875 23.31c1.4023 1.9241 6.6112 0.6785 7.7346-1.8952-0.4307-0.9716-0.842-1.8992-1.2741-2.874-1.254 0.8899-2.6558 1.2661-3.9749 1.0381-0.8725 1.3097-1.6695 2.5061-2.4856 3.7311z" fill="#fc8490"/>
 </g>
 <defs>
  <clipPath id="clip0">
   <rect width="64" height="64" fill="#fff"/>
  </clipPath>
 </defs>
</svg>
