<svg width="26" height="26" viewBox="0 0 26 26" fill="none" xmlns="http://www.w3.org/2000/svg">
<path d="M17.4757 4.53404C13.9079 0.965298 8.102 0.965298 4.53363 4.53404C0.964987 8.10187 0.964987 13.908 4.53363 17.4761C7.97959 20.922 13.5121 21.0393 17.1011 17.8298L17.8266 18.5556C17.6459 19.018 17.7407 19.5629 18.1141 19.9364L21.9425 23.7648C22.4458 24.2684 23.2622 24.2684 23.7652 23.7648C24.2688 23.2618 24.2688 22.4457 23.7652 21.9419L19.937 18.1142C19.5633 17.7402 19.0181 17.6455 18.5557 17.8265L17.8301 17.1007C21.0402 13.5119 20.9219 7.97941 17.4757 4.53404ZM5.62725 16.3828C2.662 13.4178 2.662 8.59249 5.62725 5.62723C8.59223 2.66198 13.4174 2.66198 16.3826 5.62723C19.3479 8.59249 19.3479 13.4178 16.3826 16.3828C13.4174 19.3477 8.59223 19.3477 5.62725 16.3828Z" fill="#C4C8CA"/>
</svg>
