<?xml version="1.0" encoding="UTF-8" standalone="no"?>
<svg
   xmlns:dc="http://purl.org/dc/elements/1.1/"
   xmlns:cc="http://creativecommons.org/ns#"
   xmlns:rdf="http://www.w3.org/1999/02/22-rdf-syntax-ns#"
   xmlns:svg="http://www.w3.org/2000/svg"
   xmlns="http://www.w3.org/2000/svg"
   xmlns:sodipodi="http://sodipodi.sourceforge.net/DTD/sodipodi-0.dtd"
   xmlns:inkscape="http://www.inkscape.org/namespaces/inkscape"
   width="48.452042mm"
   height="52.857643mm"
   viewBox="0 0 48.452041 52.857644"
   version="1.1"
   id="svg8"
   inkscape:version="1.0.1 (0767f8302a, 2020-10-17)"
   sodipodi:docname="top5.svg">
  <defs
     id="defs2">
    <inkscape:path-effect
       effect="bspline"
       id="path-effect899"
       is_visible="true"
       lpeversion="1"
       weight="33.333333"
       steps="2"
       helper_size="0"
       apply_no_weight="true"
       apply_with_weight="true"
       only_selected="false" />
    <inkscape:path-effect
       effect="bspline"
       id="path-effect895"
       is_visible="true"
       lpeversion="1"
       weight="33.333333"
       steps="2"
       helper_size="0"
       apply_no_weight="true"
       apply_with_weight="true"
       only_selected="false" />
    <inkscape:path-effect
       effect="bspline"
       id="path-effect891"
       is_visible="true"
       lpeversion="1"
       weight="33.333333"
       steps="2"
       helper_size="0"
       apply_no_weight="true"
       apply_with_weight="true"
       only_selected="false" />
  </defs>
  <sodipodi:namedview
     id="base"
     pagecolor="#ffffff"
     bordercolor="#666666"
     borderopacity="1.0"
     inkscape:pageopacity="0.0"
     inkscape:pageshadow="2"
     inkscape:zoom="0.49497475"
     inkscape:cx="-215.4491"
     inkscape:cy="296.54075"
     inkscape:document-units="mm"
     inkscape:current-layer="layer1"
     inkscape:document-rotation="0"
     showgrid="false"
     inkscape:window-width="1360"
     inkscape:window-height="732"
     inkscape:window-x="0"
     inkscape:window-y="36"
     inkscape:window-maximized="0" />
  <metadata
     id="metadata5">
    <rdf:RDF>
      <cc:Work
         rdf:about="">
        <dc:format>image/svg+xml</dc:format>
        <dc:type
           rdf:resource="http://purl.org/dc/dcmitype/StillImage" />
        <dc:title></dc:title>
      </cc:Work>
    </rdf:RDF>
  </metadata>
  <g
     inkscape:label="Layer 1"
     inkscape:groupmode="layer"
     id="layer1"
     transform="translate(52.676595,109.48262)">
    <path
       id="path889"
       style="fill:#800000;stroke:#000000;stroke-width:0.999999px;stroke-linecap:butt;stroke-linejoin:miter;stroke-opacity:1"
       d="m 126.8418,-27.0625 c -12.17789,-5.42e-4 -24.35374,-0.0011 -37.136722,0.367188 -12.78298,0.368314 -26.171648,1.106345 -32.845703,2.15625 -6.674055,1.049903 -6.632406,2.409919 -6.076172,4.359374 0.556234,1.949457 1.627301,4.486584 2.007813,5.804688 0.380512,1.318104 0.06964,1.418447 -0.08594,1.46875 -0.155574,0.0503 -0.156148,0.05106 -2.816406,-0.427734 -2.660258,-0.478795 -12.222035,-2.199042 -14.72461,-1.074219 -2.502573,1.124823 -6.426311,3.569248 -8.984374,6.7480468 -2.558065,3.1787983 -3.750489,7.09092847 -4.167969,11.546875 -0.41748,4.4559463 -0.06003,9.4536612 1.451172,14.0605472 1.511207,4.606886 4.176334,8.822168 10.613281,14.179687 6.436947,5.357519 16.64439,11.858441 23.574219,16.234375 6.929829,4.375934 10.581631,6.626704 12.794921,8.503906 2.213292,1.877203 2.988773,3.37947 2.697266,5.042969 -0.291507,1.6635 -1.648728,3.489238 -2.714844,4.818359 -1.066116,1.329123 -1.841187,2.161793 -1.945312,2.552735 -0.104126,0.390942 0.461536,0.339824 1.359375,-0.01172 0.897839,-0.351543 2.128638,-1.003458 2.982422,-1.507812 0.853784,-0.504355 1.33072,-0.861599 2.267578,-0.462891 0.936858,0.398708 2.33347,1.552915 4.371094,3.082031 2.037623,1.529117 4.714455,3.432754 6.738281,4.861328 2.023826,1.428575 3.394576,2.381739 5.388672,3.214844 1.994096,0.833105 4.612229,1.54636 7.082031,1.962891 2.469807,0.41653 4.790657,0.535895 5.904297,0.537109 1.11364,0.0012 1.02069,-0.115998 0.40039,4.671875 -0.62029,4.787873 -1.7677,14.481128 -2.40039,20.964848 -0.63268,6.48372 -0.75198,9.75741 -1.43945,12.05468 -0.68747,2.29728 -1.942763,3.61844 -3.343753,4.2793 -1.40099,0.66086 -2.948018,0.66069 -4.91211,0.75 -1.964092,0.0893 -4.343833,0.26801 -6.126953,0.65234 -1.783119,0.38435 -2.968321,0.9755 -4.480468,1.44922 -1.512149,0.47372 -3.352441,0.83153 -4.517579,1.13868 -1.165138,0.30714 -1.654747,0.56307 -1.892578,1.26953 -0.237831,0.70645 -0.223582,1.8612 -0.542969,2.57422 -0.319385,0.71301 -0.973812,0.98521 -2.109374,1.21093 -1.135564,0.22573 -2.752435,0.40588 -4.123047,0.55469 -1.370612,0.14881 -2.495096,0.26626 -3.283203,0.83203 -0.788109,0.56578 -1.239218,1.57777 -1.464844,3.1836 -0.225627,1.60582 -0.225091,3.80656 -0.195313,6.0371 0.02978,2.23056 0.08989,4.49075 0.208985,6.45508 0.119097,1.96434 0.29745,3.63261 0.207031,5.15821 -0.09042,1.52559 -0.449918,2.90977 -2.3125,3.57031 -1.862582,0.66054 -5.228847,0.59798 -7.212891,0.5664 -1.984044,-0.0316 -2.586337,-0.0332 -2.892578,0.14258 -0.306241,0.17581 -0.316057,0.52664 -0.410156,2.7168 -0.0941,2.19016 -0.272354,6.22104 0.521484,8.29492 0.793839,2.07388 2.558169,2.19262 16.011719,2.20313 13.45355,0.0105 38.595757,-0.0876 63.738287,-0.18555 l 35.16211,-0.45898 c 2.87077,-0.33751 5.74216,-0.67522 7.08789,-1.61719 1.34572,-0.94198 1.16731,-2.48924 1.03125,-4.57031 -0.13607,-2.08108 -0.23095,-4.69548 -0.61133,-6.04102 -0.38038,-1.34554 -1.04756,-1.42105 -1.94727,-1.45898 -0.89971,-0.0379 -2.03196,-0.0391 -3.36914,-0.0391 h -3.88867 c -1.00917,0 -1.48417,-3e-4 -2.05273,-0.29297 -0.56856,-0.29266 -1.23096,-0.8791 -1.43164,-4.96679 -0.2007,-4.08769 0.0616,-11.67654 -0.0469,-15.45703 -0.10847,-3.7805 -0.58778,-3.74997 -2.6875,-3.79493 -2.09972,-0.045 -5.82109,-0.16392 -7.93164,-1.11523 -2.11055,-0.95131 -2.61106,-2.73721 -3.65039,-3.80859 -1.03933,-1.07139 -2.61779,-1.42866 -3.92774,-1.9043 -1.30995,-0.47564 -2.351,-1.06993 -3.36328,-1.48242 -1.01228,-0.4125 -1.99446,-0.64267 -3.57031,-0.75781 -1.57585,-0.11516 -3.74404,-0.11524 -5.45312,-0.11524 h -3.71875 c -0.75894,0 -1.02635,10e-4 -1.62696,-2.23437 -0.60061,-2.23584 -1.53353,-6.7097 -2.49023,-12.82422 -0.9567,-6.11453 -1.93798,-13.869769 -2.68164,-18.701176 -0.74366,-4.831407 -1.25046,-6.737741 -0.47656,-7.855469 0.77388,-1.117727 2.82769,-1.445309 4.77734,-1.757812 1.94965,-0.312504 3.7947,-0.609901 5.625,-1.011719 1.8303,-0.401818 3.64763,-0.909038 6.25781,-2.960937 2.61018,-2.051901 6.01445,-5.649457 8.04492,-7.552735 2.03047,-1.903278 2.6862,-2.111453 3.87696,-1.634765 1.19075,0.476686 2.91583,1.637303 4.19531,2.068359 1.27948,0.431055 2.11402,0.133212 2.33789,-0.46875 0.22387,-0.601962 -0.16303,-1.509776 -0.78711,-2.410156 -0.62408,-0.900381 -1.48617,-1.792066 -2.03711,-2.699219 -0.55094,-0.907154 -0.79041,-1.830003 0.33789,-3.570313 1.12831,-1.74031 3.62375,-4.297884 5.95508,-6.201171 2.33133,-1.903289 4.49906,-3.15228 9.37109,-5.863282 4.87203,-2.711001 12.44826,-6.883375 17.81055,-10.300781 5.36229,-3.417406 8.51078,-6.078635 10.58594,-8.408203 2.07515,-2.329568 3.07773,-4.328511 3.78515,-6.091797 0.70742,-1.763286 1.11996,-3.292371 1.63868,-4.919922 0.51871,-1.627551 1.1428,-3.352455 1.5,-4.617187 0.35719,-1.264732 0.44737,-2.068405 0.2207,-3.9062504 -0.22667,-1.8378455 -0.77021,-4.7112343 -1.05664,-6.7421875 -0.28644,-2.03095308 -0.31615,-3.21939363 -1.39258,-5.2363281 -1.07643,-2.0169345 -3.19957,-4.8616862 -5.13672,-6.7285156 -1.93715,-1.8668294 -3.6879,-2.7543854 -5.79883,-3.4667964 -2.11093,-0.712413 -4.58261,-1.24974 -6.71679,-1.458985 -2.13419,-0.209245 -3.93105,-0.09057 -5.41016,0.191406 -1.47911,0.281979 -2.63927,0.727857 -3.42773,0.951172 -0.78847,0.223315 -1.20641,0.224231 -0.91797,-1.71289 0.28844,-1.937122 1.28403,-5.812113 1.51562,-8.052735 0.23159,-2.240621 -0.30199,-2.848457 -2.66992,-3.152344 -2.36793,-0.303885 -6.57005,-0.303825 -14.54297,-0.478515 -7.97292,-0.174691 -19.71659,-0.523642 -31.45898,-0.873047 z M 54.259766,-8.8613281 c -0.07948,0.071433 -0.158748,0.1413942 -0.240235,0.2109375 2.249696,7.4386014 4.498398,14.8778364 6.746094,22.3144526 0.590268,5.472772 1.179321,10.943405 1.767578,16.414063 1.170448,4.617033 2.339387,9.232713 3.507813,13.847656 0.0932,0.528904 0.186143,1.057088 0.277343,1.583985 C 64.97233,43.68261 63.625346,41.854508 62.277344,40.025391 55.118646,35.330783 47.959381,30.635966 40.798828,25.939453 38.954079,24.010526 37.108426,22.079325 35.261719,20.148438 33.83164,18.213274 32.400798,16.276969 30.96875,14.339844 30.464663,11.542151 29.9592,8.7449371 29.453125,5.9453125 c 0.771269,-2.6447244 1.541288,-5.29084806 2.310547,-7.9375 1.625711,-1.5097701 3.249362,-3.0195146 4.873047,-4.53125 1.868681,-0.7328126 3.736871,-1.4306041 5.603515,-2.1464844 3.600564,0.00756 7.200338,0.015878 10.798828,0.023437 0.408231,-0.070677 0.81448,-0.1418988 1.220704,-0.2148432 z m 122.886714,0.5429687 c 1.14923,-0.024069 2.45296,0.020027 3.88282,0.1933594 2.85972,0.3466639 6.22258,1.2089819 8.51367,2.9238281 2.29109,1.7148462 3.5117,4.28180203 4.14258,6.00781252 0.63087,1.72601048 0.67147,2.61093038 0.35547,4.48437498 -0.31601,1.8734447 -0.98868,4.7368124 -1.47461,6.7148434 -0.48594,1.978032 -0.78475,3.07148 -1.41797,4.3125 -0.63322,1.241021 -1.60138,2.629906 -2.52735,3.892579 -0.92596,1.262672 -1.81001,2.39797 -3.09375,3.68164 -1.28373,1.28367 -2.96748,2.71566 -5.66211,4.480469 -2.69462,1.764808 -6.3987,3.86294 -9.17773,5.859375 -2.77903,1.996435 -4.63138,3.890316 -6.04297,5.257812 -1.41159,1.367496 -2.38329,2.208617 -3.11523,2.605469 -0.73194,0.396852 -1.2256,0.349114 -1.35938,-0.318359 -0.13378,-0.667473 0.093,-1.956226 1.92578,-10.259766 1.8328,-8.30354 5.27246,-23.6221171 7.4336,-31.4003905 2.16113,-7.7782734 3.04389,-8.0142794 4.66406,-8.2167969 0.81009,-0.1012587 1.8039,-0.1946811 2.95312,-0.21875 z"
       transform="matrix(0.26458333,0,0,0.26458333,-58.3253,-102.18261)" />
    <text
       xml:space="preserve"
       style="font-size:21.6207px;line-height:1.25;font-family:'New Athletic M54';-inkscape-font-specification:'New Athletic M54';word-spacing:5.41062px;stroke-width:0.54052"
       x="-33.896744"
       y="-87.386055"
       id="text903"><tspan
         sodipodi:role="line"
         id="tspan901"
         x="-33.896744"
         y="-87.386055"
         style="stroke-width:0.54052">5</tspan></text>
  </g>
</svg>
