<?xml version="1.0" encoding="UTF-8"?>
<svg width="48.452mm" height="52.858mm" version="1.1" viewBox="0 0 48.452 52.858" >

 <g transform="translate(52.677 109.48)">
  <path transform="matrix(.26458 0 0 .26458 -52.677 -109.48)" d="m105.49 0.52734c-12.178-5.42e-4 -24.354-0.0011005-37.137 0.36719-12.783 0.36831-26.172 1.1063-32.846 2.1562-6.6741 1.0499-6.6324 2.4099-6.0762 4.3594 0.55623 1.9495 1.6273 4.4866 2.0078 5.8047s0.069643 1.4184-0.085937 1.4688c-0.15557 0.0503-0.15615 0.051059-2.8164-0.42774-2.6603-0.4788-12.222-2.199-14.725-1.0742-2.5026 1.1248-6.4263 3.5692-8.9844 6.748-2.5581 3.1788-3.7505 7.0909-4.168 11.547-0.41748 4.4559-0.06003 9.4537 1.4512 14.061 1.5112 4.6069 4.1763 8.8222 10.613 14.18 6.4369 5.3575 16.644 11.858 23.574 16.234s10.582 6.6267 12.795 8.5039c2.2133 1.8772 2.9888 3.3795 2.6973 5.043-0.29151 1.6635-1.6487 3.4892-2.7148 4.8184-1.0661 1.3291-1.8412 2.1618-1.9453 2.5527s0.46154 0.33982 1.3594-0.011719c0.89784-0.35154 2.1286-1.0035 2.9824-1.5078 0.85378-0.50436 1.3307-0.8616 2.2676-0.46289 0.93686 0.39871 2.3335 1.5529 4.3711 3.082 2.0376 1.5291 4.7145 3.4328 6.7383 4.8613 2.0238 1.4286 3.3946 2.3817 5.3887 3.2148 1.9941 0.83311 4.6122 1.5464 7.082 1.9629 2.4698 0.41653 4.7907 0.5359 5.9043 0.53711 1.1136 0.0012 1.0207-0.116 0.40039 4.6719-0.62029 4.7879-1.7677 14.481-2.4004 20.965-0.63268 6.4837-0.75198 9.7574-1.4395 12.055-0.68747 2.2973-1.9428 3.6184-3.3438 4.2793-1.401 0.66086-2.948 0.6607-4.9121 0.75s-4.3438 0.26802-6.127 0.65235c-1.7831 0.38435-2.9683 0.9755-4.4805 1.4492-1.5121 0.47372-3.3524 0.83152-4.5176 1.1387-1.1651 0.30714-1.6547 0.56307-1.8926 1.2695-0.23783 0.70645-0.22358 1.8612-0.54297 2.5742-0.31938 0.71301-0.97381 0.98522-2.1094 1.2109-1.1356 0.22573-2.7524 0.40587-4.123 0.55468s-2.4951 0.26627-3.2832 0.83204c-0.78811 0.56578-1.2392 1.5778-1.4648 3.1836-0.22563 1.6058-0.22509 3.8066-0.19531 6.0371 0.02978 2.2306 0.089889 4.4908 0.20898 6.4551 0.1191 1.9643 0.29745 3.6326 0.20703 5.1582-0.09042 1.5256-0.44992 2.9098-2.3125 3.5703-1.8626 0.66054-5.2288 0.59799-7.2129 0.56641-1.984-0.0316-2.5863-0.0332-2.8926 0.14258-0.30624 0.17581-0.31606 0.52663-0.41016 2.7168s-0.27235 6.221 0.52148 8.2949c0.79384 2.0739 2.5582 2.1926 16.012 2.2031 13.454 0.0105 38.596-0.0876 63.738-0.18555l35.162-0.45898c2.8708-0.33751 5.7422-0.67522 7.0879-1.6172 1.3457-0.94198 1.1673-2.4892 1.0312-4.5703-0.13607-2.0811-0.23095-4.6955-0.61133-6.041s-1.0476-1.421-1.9473-1.459c-0.89971-0.0379-2.032-0.03906-3.3691-0.03906h-3.8887c-1.0092 0-1.4842-3e-4 -2.0527-0.29297-0.56856-0.29266-1.231-0.87911-1.4316-4.9668-0.2007-4.0877 0.06162-11.677-0.04688-15.457-0.10847-3.7805-0.58778-3.75-2.6875-3.7949-2.0997-0.045-5.8211-0.16393-7.9316-1.1152s-2.6111-2.7372-3.6504-3.8086c-1.0393-1.0714-2.6178-1.4287-3.9277-1.9043-1.3099-0.47564-2.351-1.0699-3.3633-1.4824-1.0123-0.4125-1.9945-0.64267-3.5703-0.75781-1.5758-0.11516-3.744-0.11524-5.4531-0.11524h-3.7188c-0.75894 0-1.0264 1e-3 -1.627-2.2344-0.60061-2.2358-1.5335-6.7097-2.4902-12.824-0.9567-6.1145-1.938-13.87-2.6816-18.701-0.74366-4.8314-1.2505-6.7377-0.47656-7.8555 0.77388-1.1177 2.8277-1.4453 4.7773-1.7578 1.9496-0.31251 3.7947-0.6099 5.625-1.0117s3.6476-0.90904 6.2578-2.9609 6.0144-5.6495 8.0449-7.5527 2.6862-2.1115 3.877-1.6348c1.1908 0.47669 2.9158 1.6373 4.1953 2.0684 1.2795 0.43106 2.114 0.13321 2.3379-0.46875s-0.16303-1.5098-0.78711-2.4102c-0.62408-0.90038-1.4862-1.7921-2.0371-2.6992-0.55094-0.90715-0.79041-1.83 0.33789-3.5703 1.1283-1.7403 3.6238-4.2979 5.9551-6.2012 2.3313-1.9033 4.4991-3.1523 9.3711-5.8633 4.872-2.711 12.448-6.8834 17.811-10.301s8.5108-6.0786 10.586-8.4082c2.0752-2.3296 3.0777-4.3285 3.7852-6.0918s1.12-3.2924 1.6387-4.9199c0.51871-1.6276 1.1428-3.3525 1.5-4.6172 0.35719-1.2647 0.44737-2.0684 0.2207-3.9062-0.22667-1.8378-0.77021-4.7112-1.0566-6.7422-0.28644-2.031-0.31615-3.2194-1.3926-5.2363-1.0764-2.0169-3.1996-4.8617-5.1367-6.7285-1.9372-1.8668-3.6879-2.7544-5.7988-3.4668-2.1109-0.71241-4.5826-1.2497-6.7168-1.459-2.1342-0.20924-3.931-0.09057-5.4102 0.19141-1.4791 0.28198-2.6393 0.72786-3.4277 0.95117-0.78847 0.22332-1.2064 0.22423-0.91797-1.7129 0.28844-1.9371 1.284-5.8121 1.5156-8.0527 0.23159-2.2406-0.30199-2.8485-2.6699-3.1523-2.3679-0.30388-6.57-0.30383-14.543-0.47852-7.9729-0.17469-19.717-0.52364-31.459-0.87305zm-72.582 18.201c-0.07948 0.071433-0.15875 0.14139-0.24023 0.21094 2.2497 7.4386 4.4984 14.878 6.7461 22.314 0.59027 5.4728 1.1793 10.943 1.7676 16.414 1.1704 4.617 2.3394 9.2327 3.5078 13.848 0.0932 0.5289 0.18614 1.0571 0.27734 1.584-1.346-1.8272-2.693-3.6553-4.041-5.4844-7.1587-4.6946-14.318-9.3894-21.479-14.086-1.8447-1.9289-3.6904-3.8601-5.5371-5.791-1.4301-1.9352-2.8609-3.8715-4.293-5.8086-0.50409-2.7977-1.0096-5.5949-1.5156-8.3945 0.77127-2.6447 1.5413-5.2908 2.3105-7.9375 1.6257-1.5098 3.2494-3.0195 4.873-4.5312 1.8687-0.73281 3.7369-1.4306 5.6035-2.1465 3.6006 0.00756 7.2003 0.015878 10.799 0.023437 0.40823-0.070677 0.81448-0.1419 1.2207-0.21484zm122.89 0.54297c1.1492-0.024069 2.453 0.020027 3.8828 0.19336 2.8597 0.34666 6.2226 1.209 8.5137 2.9238s3.5117 4.2818 4.1426 6.0078c0.63087 1.726 0.67147 2.6109 0.35547 4.4844-0.31601 1.8734-0.98868 4.7368-1.4746 6.7148-0.48594 1.978-0.78475 3.0715-1.418 4.3125-0.63322 1.241-1.6014 2.6299-2.5274 3.8926-0.92596 1.2627-1.81 2.398-3.0938 3.6816-1.2837 1.2837-2.9675 2.7157-5.6621 4.4805-2.6946 1.7648-6.3987 3.8629-9.1777 5.8594s-4.6314 3.8903-6.043 5.2578-2.3833 2.2086-3.1152 2.6055-1.2256 0.34911-1.3594-0.31836c-0.13378-0.66747 0.093-1.9562 1.9258-10.26 1.8328-8.3035 5.2725-23.622 7.4336-31.4 2.1611-7.7783 3.0439-8.0143 4.6641-8.2168 0.81009-0.10126 1.8039-0.19468 2.9531-0.21875zm-74.189 1.5098c5.0352 0.009585 14.456 0.039445 19.166 0.054688 4.7104 0.015242 4.711 0.012886 4.8438 0.035156 0.13277 0.022269 0.39778 0.065864 0.63476 0.13672 0.23698 0.070855 0.44354 0.16754 0.64258 0.30664 0.19904 0.13911 0.38914 0.3201 0.52735 0.50586 0.1382 0.18576 0.22552 0.3762 0.30859 0.63867 0.08307 0.26247 0.16273 0.59698 0.19726 0.89062 0.03454 0.29364 0.02374 0.54663 0.01758 0.94531-0.00615 0.39868-0.00712 0.94347-0.00781 1.5586-6.9e-4 0.61512-5e-4 1.3002-0.00195 1.9883-0.00146 0.68812-0.00583 1.3786-0.01758 1.7969s-0.03044 0.56447-0.08203 0.77734-0.13521 0.49416-0.24024 0.7207c-0.10502 0.22654-0.2325 0.39975-0.39648 0.55664-0.16398 0.15689-0.3641 0.29724-0.58008 0.40234-0.21598 0.1051-0.44728 0.17498-0.68164 0.2207s-0.47337 0.066051-0.85938 0.076172c-0.386 0.010121-0.92133 0.009072-1.4551 0.007813l-18.24 0.001953c0.004158 1.0436 0.007816 2.0891 0.007813 3.7051-3e-6 1.616-0.003655 3.8038-0.007813 5.9922l9.5527 0.009766c1.0446 0.001386 2.0911 0.001643 2.9609 0.072266 0.86981 0.070622 1.5629 0.211 2.1426 0.375 0.57972 0.164 1.0453 0.35212 1.666 0.68359 0.62074 0.33147 1.3972 0.80578 2.1934 1.4609 0.79613 0.65516 1.6125 1.4904 2.1797 2.168 0.56719 0.6776 0.88673 1.1971 1.1699 1.8125s0.53032 1.3258 0.73437 3.2441c0.20406 1.9183 0.36432 5.0454 0.43946 8.6855 0.07513 3.6401 0.06439 7.7948-0.00391 10.227-0.0683 2.4318-0.19405 3.1405-0.375 3.8379-0.18095 0.69744-0.41693 1.3824-0.79883 2.1074-0.3819 0.72502-0.91017 1.4895-1.4863 2.1758-0.57615 0.68624-1.2046 1.299-1.8496 1.8301-0.64497 0.53105-1.3087 0.98303-2.1406 1.3906-0.83189 0.4076-1.8326 0.772-2.666 0.97266-0.8334 0.20065-1.5926 0.2432-2.7227 0.26953-1.13 0.026334-2.6795 0.03817-4.2266 0.050781-2.8182-0.012661-5.6339-0.025456-7.2539-0.089844-1.62-0.064387-2.0418-0.17974-2.8926-0.49219-0.85081-0.31245-2.1322-0.82187-3.2715-1.6426s-2.1369-1.9542-2.877-2.9961-1.2215-1.9914-1.5742-3.125-0.57641-2.4515-0.59766-3.7188 0.16081-2.4843 0.39453-3.1973c0.23373-0.713 0.5194-0.91999 0.85742-1.0723s0.7272-0.24907 2.1484-0.26953c1.4212-0.020466 3.8735 0.035285 5.2441 0.082031 1.3706 0.046745 1.6604 0.083941 1.9336 0.27539 0.2732 0.19145 0.52921 0.53675 0.72266 0.92383s0.32413 0.81569 0.37891 1.3359c0.054775 0.52025 0.033739 1.1318 0.017578 1.5566-0.01616 0.42481-0.027684 0.66412-0.017578 0.78516 0.010107 0.12104 0.042259 0.12344 0.59961 0.12109 0.55735-0.002347 1.6395-0.010839 2.7227-0.019531l1.0547 0.019531h0.97656l1.0938-0.003907 1.2461-0.001953h3.7363c0.003023-0.078702 0.005841-0.1554 0.005859-3.2012 1.9e-5 -3.0458-0.002836-9.0595-0.005859-15.072-4.0837-0.001638-8.1668-0.00372-10.531-0.048828-2.3645-0.045109-3.0109-0.13286-3.8887-0.41602-0.87782-0.28316-1.9877-0.76264-3.0742-1.4336-1.0865-0.67095-2.1493-1.5353-2.8594-2.3379-0.71012-0.80261-1.067-1.5429-1.4863-2.4492s-0.90031-1.9777-1.1094-3.1797c-0.20906-1.2019-0.14536-2.5343-0.11523-4.4844 0.030127-1.9501 0.026894-4.5171 0.058593-7.418 0.0317-2.9009 0.099036-6.1346 0.18555-7.9219s0.19151-2.1282 0.4082-2.416c0.21669-0.28782 0.55744-0.53108 1.0488-0.65625 0.49139-0.12516 1.1405-0.13654 6.1758-0.12695z" fill=""/>
 </g>
</svg>
